<?xml version="1.0" standalone="no"?><!DOCTYPE svg PUBLIC "-//W3C//DTD SVG 1.1//EN" "http://www.w3.org/Graphics/SVG/1.1/DTD/svg11.dtd"><svg t="1750767495591" class="icon" viewBox="0 0 1024 1024" version="1.1" xmlns="http://www.w3.org/2000/svg" p-id="5280" xmlns:xlink="http://www.w3.org/1999/xlink" width="256" height="256"><path d="M768 512a35.84 35.84 0 0 1-35.84 35.84h-183.466667v182.613333a35.84 35.84 0 1 1-72.106666 0v-181.76H291.84a35.84 35.84 0 1 1 0-72.106666h184.32v-183.466667a35.84 35.84 0 1 1 72.106667 0v183.466667h183.466666A35.84 35.84 0 0 1 768 512zM512 0a512 512 0 1 0 512 512A512 512 0 0 0 512 0z" fill="#bfbfbf" p-id="5281"></path></svg>