<?xml version="1.0" standalone="no"?><!DOCTYPE svg PUBLIC "-//W3C//DTD SVG 1.1//EN" "http://www.w3.org/Graphics/SVG/1.1/DTD/svg11.dtd"><svg t="1747831242245" class="icon" viewBox="0 0 1024 1024" version="1.1" xmlns="http://www.w3.org/2000/svg" p-id="20758" xmlns:xlink="http://www.w3.org/1999/xlink" width="256" height="256"><path d="M905.053045 668.165029h-125.233792v-0.251473l0.002012-362.540762c0.332951-2.514735 0.500935-5.060652 0.500935-7.628197 0-31.804857-25.78257-57.587426-57.587426-57.587426H359.355599v-124.730845h545.697446v552.738703z m-125.233792 290.33468V783.339882H963.143418c31.804857 0 57.587426-25.78257 57.587427-57.587426 0-2.567544-0.167984-5.113965-0.502947-7.661391l0.002012-652.623969c0.332951-2.514735 0.500935-5.060652 0.500935-7.628196C1020.730845 26.034043 994.948275 0.251473 963.143418 0.251473H301.265226C269.460369 0.251473 243.6778 26.034043 243.6778 57.8389c0 2.567544 0.167984 5.113965 0.502947 7.661391V240.157171H60.856582C29.051725 240.157171 3.269155 265.939741 3.269155 297.744597c0 2.567544 0.167984 5.113965 0.502947 7.661391l-0.002012 653.126916c-0.332951 2.514735-0.500935 5.060652-0.500935 7.628196 0 31.804857 25.78257 57.587426 57.587427 57.587427h661.878192c31.804857 0 57.587426-25.78257 57.587426-57.587427 0-2.567544-0.167984-5.113965-0.502947-7.661391z m-660.872298-49.926035v-553.24165h545.697446v553.24165h-545.697446z" fill="#000000" p-id="20759"></path></svg>